<?xml version="1.0" encoding="UTF-8"?>
<!DOCTYPE svg PUBLIC "-//W3C//DTD SVG 1.1//EN" "http://www.w3.org/Graphics/SVG/1.1/DTD/svg11.dtd">
<svg version="1.1" xmlns="http://www.w3.org/2000/svg" xmlns:xlink="http://www.w3.org/1999/xlink" x="0" y="0" width="612" height="792" viewBox="0, 0, 612, 792">

    <g id="clubs">
      <path d="M158.152,172.193 C99.339,144.099 12.825,177.61 33.294,253.205 C53.241,326.874 139.385,310.707 169.173,265.864 C156.746,350.889 134.921,364.126 121.839,382.584 L260.723,382.584 C246.651,362.845 221.099,350.889 206.115,264.699 C236.131,309.466 326.368,324.986 346.027,252.382 C365.365,180.961 278.193,140.288 220.226,172.619 C275.811,135.294 295.773,12.706 190.495,12.706 C84.177,12.706 101.916,137.691 158.152,172.193 z" fill="#000000"/>
      <path d="M158.152,172.193 C99.339,144.099 12.825,177.61 33.294,253.205 C53.241,326.874 139.385,310.707 169.173,265.864 C156.746,350.889 134.921,364.126 121.839,382.584 L260.723,382.584 C246.651,362.845 221.099,350.889 206.115,264.699 C236.131,309.466 326.368,324.986 346.027,252.382 C365.365,180.961 278.193,140.288 220.226,172.619 C275.811,135.294 295.773,12.706 190.495,12.706 C84.177,12.706 101.916,137.691 158.152,172.193 z" fill-opacity="0" stroke="#000000" stroke-width="1.811"/>
    </g>
    <g id="spades">
      <path d="M90.252,136.735 C-31.828,261.458 87.844,351.927 184.366,292.382 C166.141,357.35 156.119,362.462 145.054,379.571 L249.269,379.571 C235.891,362.294 221.843,357.35 207.609,292.752 C306.156,349.361 410.019,250.638 300.669,136.735 C229.155,74.181 201.39,17.071 195.461,8.962 C189.772,15.718 156.253,75.341 90.252,136.735 z" fill="#000000"/>
      <path d="M90.252,136.735 C-31.828,261.458 87.844,351.927 184.366,292.382 C166.141,357.35 156.119,362.462 145.054,379.571 L249.269,379.571 C235.891,362.294 221.843,357.35 207.609,292.752 C306.156,349.361 410.019,250.638 300.669,136.735 C229.155,74.181 201.39,17.071 195.461,8.962 C189.772,15.718 156.253,75.341 90.252,136.735 z" fill-opacity="0" stroke="#000000" stroke-width="0.856"/>
    </g>

  <g id="hearts">
    <path d="M182.5,383.733 C182.157,383.115 180.682,378.645 179.222,373.8 C169.968,343.094 152.789,312 124.021,273.887 C113.213,259.569 103.04,246.889 75.532,213.45 C43.681,174.733 34.557,162.33 25.344,145.222 C19.904,135.12 14.266,119.749 12.41,109.96 C10.556,100.176 10.526,84.193 12.346,75.87 C19.749,42.016 49.821,16.475 85.779,13.501 C126.972,10.094 162.011,30.904 180.422,69.708 L184.533,78.373 L187.628,71.528 C192.225,61.356 196.653,54.477 204.126,45.894 C223.154,24.04 245.8,13.335 273.081,13.298 C285.301,13.281 292.303,14.295 302.716,17.59 C318.29,22.518 330.014,30.195 340.455,42.303 C367.665,73.857 364.443,116.843 330.923,169.491 C323.103,181.772 308.995,199.943 289.593,222.722 C267.249,248.954 256.332,262.285 245.155,276.987 C218.364,312.227 200.345,344.247 190.434,374.231 C188.922,378.805 187.338,383.067 186.914,383.702 C185.929,385.177 183.312,385.195 182.5,383.733 z" fill="#FF0000"/>
  </g>
  <g id="diamonds">
    <path d="M190.486,44.004 C151.788,108.401 108.223,170.348 63.964,229.844 C110.309,289.339 154.568,351.286 190.486,415.683 C227.793,350.061 268.577,287.501 317.008,229.844 C269.967,170.348 227.098,107.176 190.486,44.004 z" fill="#FF0000"/>
  </g>
</svg>
